<svg id="visual" viewBox="0 0 1400 1000" width="1400" height="1000" xmlns="http://www.w3.org/2000/svg" xmlns:xlink="http://www.w3.org/1999/xlink" version="1.1"><rect x="0" y="0" width="1400" height="1000" fill="#F6EBD8"></rect><defs><linearGradient id="grad1_0" x1="28.6%" y1="100%" x2="100%" y2="0%"><stop offset="22.000000000000004%" stop-color="#eec170" stop-opacity="1"></stop><stop offset="78%" stop-color="#eec170" stop-opacity="1"></stop></linearGradient></defs><defs><linearGradient id="grad1_1" x1="28.6%" y1="100%" x2="100%" y2="0%"><stop offset="22.000000000000004%" stop-color="#eec170" stop-opacity="1"></stop><stop offset="78%" stop-color="#f3d6a4" stop-opacity="1"></stop></linearGradient></defs><defs><linearGradient id="grad1_2" x1="28.6%" y1="100%" x2="100%" y2="0%"><stop offset="22.000000000000004%" stop-color="#f6ebd8" stop-opacity="1"></stop><stop offset="78%" stop-color="#f3d6a4" stop-opacity="1"></stop></linearGradient></defs><defs><linearGradient id="grad2_0" x1="0%" y1="100%" x2="71.4%" y2="0%"><stop offset="22.000000000000004%" stop-color="#eec170" stop-opacity="1"></stop><stop offset="78%" stop-color="#eec170" stop-opacity="1"></stop></linearGradient></defs><defs><linearGradient id="grad2_1" x1="0%" y1="100%" x2="71.4%" y2="0%"><stop offset="22.000000000000004%" stop-color="#f3d6a4" stop-opacity="1"></stop><stop offset="78%" stop-color="#eec170" stop-opacity="1"></stop></linearGradient></defs><defs><linearGradient id="grad2_2" x1="0%" y1="100%" x2="71.4%" y2="0%"><stop offset="22.000000000000004%" stop-color="#f3d6a4" stop-opacity="1"></stop><stop offset="78%" stop-color="#f6ebd8" stop-opacity="1"></stop></linearGradient></defs><g transform="translate(1400, 1000)"><path d="M-731.2 0C-690.1 -114.5 -649 -229 -593.2 -342.5C-537.4 -456 -466.9 -568.6 -365.6 -633.2C-264.3 -697.9 -132.1 -714.5 0 -731.2L0 0Z" fill="#f5e1be"></path><path d="M-487.5 0C-460.1 -76.3 -432.7 -152.6 -395.5 -228.3C-358.3 -304 -311.3 -379.1 -243.7 -422.2C-176.2 -465.2 -88.1 -476.4 0 -487.5L0 0Z" fill="#f1cc8a"></path><path d="M-243.7 0C-230 -38.2 -216.3 -76.3 -197.7 -114.2C-179.1 -152 -155.6 -189.5 -121.9 -211.1C-88.1 -232.6 -44 -238.2 0 -243.7L0 0Z" fill="#eec170"></path></g><g transform="translate(0, 0)"><path d="M731.2 0C683.6 110.8 636.1 221.5 581.1 335.5C526.1 449.5 463.7 566.7 365.6 633.2C267.5 699.7 133.8 715.5 0 731.2L0 0Z" fill="#f5e1be"></path><path d="M487.5 0C455.8 73.8 424.1 147.7 387.4 223.7C350.7 299.7 309.1 377.8 243.7 422.2C178.3 466.5 89.2 477 0 487.5L0 0Z" fill="#f1cc8a"></path><path d="M243.7 0C227.9 36.9 212 73.8 193.7 111.8C175.4 149.8 154.6 188.9 121.9 211.1C89.2 233.2 44.6 238.5 0 243.7L0 0Z" fill="#eec170"></path></g></svg>