<svg id="visual" viewBox="0 0 960 540" width="960" height="540" xmlns="http://www.w3.org/2000/svg" xmlns:xlink="http://www.w3.org/1999/xlink" version="1.1"><rect x="0" y="0" width="960" height="540" fill="#F6EBD8"></rect><defs><linearGradient id="grad1_0" x1="43.8%" y1="0%" x2="100%" y2="100%"><stop offset="14.444444444444446%" stop-color="#f58549" stop-opacity="1"></stop><stop offset="85.55555555555554%" stop-color="#f58549" stop-opacity="1"></stop></linearGradient></defs><defs><linearGradient id="grad1_1" x1="43.8%" y1="0%" x2="100%" y2="100%"><stop offset="14.444444444444446%" stop-color="#f58549" stop-opacity="1"></stop><stop offset="85.55555555555554%" stop-color="#f3ac70" stop-opacity="1"></stop></linearGradient></defs><defs><linearGradient id="grad1_2" x1="43.8%" y1="0%" x2="100%" y2="100%"><stop offset="14.444444444444446%" stop-color="#f3cda0" stop-opacity="1"></stop><stop offset="85.55555555555554%" stop-color="#f3ac70" stop-opacity="1"></stop></linearGradient></defs><defs><linearGradient id="grad1_3" x1="43.8%" y1="0%" x2="100%" y2="100%"><stop offset="14.444444444444446%" stop-color="#f3cda0" stop-opacity="1"></stop><stop offset="85.55555555555554%" stop-color="#f6ebd8" stop-opacity="1"></stop></linearGradient></defs><defs><linearGradient id="grad2_0" x1="0%" y1="0%" x2="56.3%" y2="100%"><stop offset="14.444444444444446%" stop-color="#f58549" stop-opacity="1"></stop><stop offset="85.55555555555554%" stop-color="#f58549" stop-opacity="1"></stop></linearGradient></defs><defs><linearGradient id="grad2_1" x1="0%" y1="0%" x2="56.3%" y2="100%"><stop offset="14.444444444444446%" stop-color="#f3ac70" stop-opacity="1"></stop><stop offset="85.55555555555554%" stop-color="#f58549" stop-opacity="1"></stop></linearGradient></defs><defs><linearGradient id="grad2_2" x1="0%" y1="0%" x2="56.3%" y2="100%"><stop offset="14.444444444444446%" stop-color="#f3ac70" stop-opacity="1"></stop><stop offset="85.55555555555554%" stop-color="#f3cda0" stop-opacity="1"></stop></linearGradient></defs><defs><linearGradient id="grad2_3" x1="0%" y1="0%" x2="56.3%" y2="100%"><stop offset="14.444444444444446%" stop-color="#f6ebd8" stop-opacity="1"></stop><stop offset="85.55555555555554%" stop-color="#f3cda0" stop-opacity="1"></stop></linearGradient></defs><g transform="translate(960, 0)"><path d="M0 436C-90.8 455.8 -181.6 475.6 -256.5 444.3C-331.4 413 -390.3 330.6 -429.5 248C-468.8 165.4 -488.4 82.7 -508 0L0 0Z" fill="#f4dcbc"></path><path d="M0 327C-68.1 341.8 -136.2 356.7 -192.4 333.2C-248.5 309.7 -292.7 247.9 -322.2 186C-351.6 124.1 -366.3 62 -381 0L0 0Z" fill="#f3bd87"></path><path d="M0 218C-45.4 227.9 -90.8 237.8 -128.2 222.1C-165.7 206.5 -195.1 165.3 -214.8 124C-234.4 82.7 -244.2 41.4 -254 0L0 0Z" fill="#f4995b"></path><path d="M0 109C-22.7 113.9 -45.4 118.9 -64.1 111.1C-82.8 103.2 -97.6 82.6 -107.4 62C-117.2 41.4 -122.1 20.7 -127 0L0 0Z" fill="#f58549"></path></g><g transform="translate(0, 540)"><path d="M0 -422C89.9 -448.1 179.7 -474.2 256.5 -444.3C333.3 -414.3 397 -328.4 424.4 -245C451.8 -161.6 442.9 -80.8 434 0L0 0Z" fill="#f4dcbc"></path><path d="M0 -316.5C67.4 -336.1 134.8 -355.7 192.4 -333.2C250 -310.8 297.7 -246.3 318.3 -183.8C338.8 -121.2 332.2 -60.6 325.5 0L0 0Z" fill="#f3bd87"></path><path d="M0 -211C44.9 -224.1 89.9 -237.1 128.2 -222.1C166.6 -207.2 198.5 -164.2 212.2 -122.5C225.9 -80.8 221.4 -40.4 217 0L0 0Z" fill="#f4995b"></path><path d="M0 -105.5C22.5 -112 44.9 -118.6 64.1 -111.1C83.3 -103.6 99.2 -82.1 106.1 -61.3C112.9 -40.4 110.7 -20.2 108.5 0L0 0Z" fill="#f58549"></path></g></svg>